<svg width="128" height="128" xmlns="http://www.w3.org/2000/svg"><g fill-rule="nonzero"><path d="M64 29.404a55.8 55.8 0 0 1 40.566 17.138 59.786 59.786 0 0 1 10.097 14.127 8.348 8.348 0 0 1 0 7.662 59.786 59.786 0 0 1-10.097 14.127A55.8 55.8 0 0 1 64 99.596a55.8 55.8 0 0 1-40.566-17.138A59.786 59.786 0 0 1 13.337 68.33a8.348 8.348 0 0 1 0-7.662 59.786 59.786 0 0 1 10.097-14.127A55.8 55.8 0 0 1 64 29.404zm0-8.858a65.011 65.011 0 0 0-46.943 19.929 68.997 68.997 0 0 0-11.603 16.23 17.36 17.36 0 0 0 0 15.766 68.997 68.997 0 0 0 11.603 16.143 65.454 65.454 0 0 0 93.886 0 68.997 68.997 0 0 0 11.603-16.231 17.36 17.36 0 0 0 0-15.766 68.997 68.997 0 0 0-11.603-16.23A65.011 65.011 0 0 0 64 20.456v.09z"/><path d="M64 53.429c6.115 0 11.071 4.956 11.071 11.071 0 6.115-4.956 11.071-11.071 11.071-6.115 0-11.071-4.956-11.071-11.071 0-6.115 4.956-11.071 11.071-11.071zm0-8.858c-11.006 0-19.929 8.923-19.929 19.929 0 11.006 8.923 19.929 19.929 19.929 11.006 0 19.929-8.923 19.929-19.929 0-11.006-8.923-19.929-19.929-19.929z"/></g></svg>